<svg xmlns="http://www.w3.org/2000/svg" viewBox="0 0 240 240" role="img" aria-labelledby="title desc">
  <title id="title">PiDNS Project Logo</title>
  <desc id="desc">Shield with network nodes and pi symbol representing secure DNS services</desc>
  <defs>
    <linearGradient id="bgGradient" x1="0%" y1="0%" x2="100%" y2="100%">
      <stop offset="0%" stop-color="#0d6efd" />
      <stop offset="100%" stop-color="#6610f2" />
    </linearGradient>
    <linearGradient id="accentGradient" x1="0%" y1="0%" x2="100%" y2="100%">
      <stop offset="0%" stop-color="#20c997" />
      <stop offset="100%" stop-color="#0dcaf0" />
    </linearGradient>
  </defs>
  <g fill="none" stroke-linecap="round" stroke-linejoin="round">
    <path d="M120 230c-54-24-90-68-90-126V44l90-34 90 34v60c0 58-36 102-90 126z" fill="url(#bgGradient)" stroke="#031633" stroke-width="8" />
    <path d="M70 105c25-35 75-35 100 0" stroke="rgba(255,255,255,0.6)" stroke-width="10" />
    <circle cx="70" cy="105" r="12" fill="#20c997" stroke="#031633" stroke-width="4" />
    <circle cx="170" cy="105" r="12" fill="#20c997" stroke="#031633" stroke-width="4" />
    <circle cx="120" cy="65" r="12" fill="#0dcaf0" stroke="#031633" stroke-width="4" />
    <path d="M85 160c0-22 17-40 35-40" stroke="#20c997" stroke-width="10" />
    <path d="M155 160c0-22-17-40-35-40" stroke="#0dcaf0" stroke-width="10" />
    <path d="M110 90h46c-2 40-5 84-36 84-10 0-18-4-18-14 0-10 8-14 18-14" stroke="#fff" stroke-width="12" />
    <path d="M110 90h46c-2 40-5 84-36 84-10 0-18-4-18-14 0-10 8-14 18-14" stroke="#031633" stroke-width="4" />
  </g>
  <path d="M120 212c44-21 74-60 74-108V58l-74-28-74 28v46c0 48 30 87 74 108z" fill="none" stroke="rgba(255,255,255,0.35)" stroke-width="6" />
</svg>
